{
  "accessors": [
    {
      "bufferView": 2,
      "componentType": 5126,
      "count": 8,
      "max": [
        1193.2755126953125,
        1013.2633666992188,
        11276.728515625
      ],
      "min": [
        1029.2755126953125,
        849.26336669921875,
        9575.212890625
      ],
      "type": "VEC3"
    },
    {
      "bufferView": 2,
      "byteOffset": 96,
      "componentType": 5126,
      "count": 8,
      "max": [
        0,
        0,
        -0
      ],
      "min": [
        -1,
        -1,
        -0
      ],
      "type": "VEC3"
    },
    {
      "bufferView": 3,
      "componentType": 5126,
      "count": 8,
      "max": [
        1,
        0,
        0,
        1
      ],
      "min": [
        0,
        -1,
        0,
        1
      ],
      "type": "VEC4"
    },
    {
      "bufferView": 1,
      "componentType": 5126,
      "count": 8,
      "max": [
        1,
        1
      ],
      "min": [
        0,
        0
      ],
      "type": "VEC2"
    },
    {
      "bufferView": 0,
      "componentType": 5125,
      "count": 12,
      "max": [
        7
      ],
      "min": [
        0
      ],
      "type": "SCALAR"
    },
    {
      "bufferView": 2,
      "byteOffset": 192,
      "componentType": 5126,
      "count": 3048,
      "max": [
        2162.7529296875,
        299.1260986328125,
        7334.9677734375
      ],
      "min": [
        65.783935546875,
        0,
        346.24267578125
      ],
      "type": "VEC3"
    },
    {
      "bufferView": 2,
      "byteOffset": 36768,
      "componentType": 5126,
      "count": 3048,
      "max": [
        0.83901441097259521,
        0.58200311660766602,
        0.028000151738524437
      ],
      "min": [
        -0.83901441097259521,
        -1,
        -0.00010000171459978446
      ],
      "type": "VEC3"
    },
    {
      "bufferView": 3,
      "byteOffset": 128,
      "componentType": 5126,
      "count": 3048,
      "max": [
        1,
        0.83901441097259521,
        0.0008629215881228447,
        1
      ],
      "min": [
        -0.58221060037612915,
        -0.83901441097259521,
        -0.00090535759227350354,
        1
      ],
      "type": "VEC4"
    },
    {
      "bufferView": 1,
      "byteOffset": 64,
      "componentType": 5126,
      "count": 3048,
      "max": [
        1,
        1.9987000226974487
      ],
      "min": [
        0.00060000002849847078,
        0
      ],
      "type": "VEC2"
    },
    {
      "bufferView": 0,
      "byteOffset": 48,
      "componentType": 5125,
      "count": 5136,
      "max": [
        3047
      ],
      "min": [
        0
      ],
      "type": "SCALAR"
    },
    {
      "bufferView": 2,
      "byteOffset": 73344,
      "componentType": 5126,
      "count": 1764,
      "max": [
        2156.76904296875,
        382.30389404296875,
        7562.94482421875
      ],
      "min": [
        71.95166015625,
        5.31439208984375,
        346.24267578125
      ],
      "type": "VEC3"
    },
    {
      "bufferView": 2,
      "byteOffset": 94512,
      "componentType": 5126,
      "count": 1764,
      "max": [
        1,
        0,
        0
      ],
      "min": [
        -1,
        -1,
        0
      ],
      "type": "VEC3"
    },
    {
      "bufferView": 3,
      "byteOffset": 48896,
      "componentType": 5126,
      "count": 1764,
      "max": [
        1,
        1,
        0,
        1
      ],
      "min": [
        0,
        -1,
        -0.0027542510069906712,
        1
      ],
      "type": "VEC4"
    },
    {
      "bufferView": 1,
      "byteOffset": 24448,
      "componentType": 5126,
      "count": 1764,
      "max": [
        1.5061999559402466,
        1.0002000331878662
      ],
      "min": [
        -0.49610000848770142,
        -9.9999997473787516e-05
      ],
      "type": "VEC2"
    },
    {
      "bufferView": 0,
      "byteOffset": 20592,
      "componentType": 5125,
      "count": 2646,
      "max": [
        1763
      ],
      "min": [
        0
      ],
      "type": "SCALAR"
    },
    {
      "bufferView": 2,
      "byteOffset": 115680,
      "componentType": 5126,
      "count": 136,
      "max": [
        2229.56884765625,
        910.45318603515625,
        7632.91845703125
      ],
      "min": [
        0,
        9.2802886962890625,
        0
      ],
      "type": "VEC3"
    },
    {
      "bufferView": 2,
      "byteOffset": 117312,
      "componentType": 5126,
      "count": 136,
      "max": [
        1,
        0,
        1
      ],
      "min": [
        -1,
        -1,
        0
      ],
      "type": "VEC3"
    },
    {
      "bufferView": 3,
      "byteOffset": 77120,
      "componentType": 5126,
      "count": 136,
      "max": [
        1,
        1,
        1.3877870256072661e-21,
        1
      ],
      "min": [
        -1,
        -1,
        0,
        1
      ],
      "type": "VEC4"
    },
    {
      "bufferView": 1,
      "byteOffset": 38560,
      "componentType": 5126,
      "count": 136,
      "max": [
        32.584098815917969,
        63.286300659179688
      ],
      "min": [
        -24.768299102783203,
        -55.339000701904297
      ],
      "type": "VEC2"
    },
    {
      "bufferView": 0,
      "byteOffset": 31176,
      "componentType": 5125,
      "count": 228,
      "max": [
        135
      ],
      "min": [
        0
      ],
      "type": "SCALAR"
    },
    {
      "bufferView": 2,
      "byteOffset": 118944,
      "componentType": 5126,
      "count": 720,
      "max": [
        2086.942626953125,
        272.348876953125,
        7082.07080078125
      ],
      "min": [
        136.87646484375,
        2.77178955078125,
        2024.94384765625
      ],
      "type": "VEC3"
    },
    {
      "bufferView": 2,
      "byteOffset": 127584,
      "componentType": 5126,
      "count": 720,
      "max": [
        0.99341881275177002,
        0.99761962890625,
        1
      ],
      "min": [
        -0.99341881275177002,
        -1,
        -0.38099575042724609
      ],
      "type": "VEC3"
    },
    {
      "bufferView": 3,
      "byteOffset": 79296,
      "componentType": 5126,
      "count": 720,
      "max": [
        1,
        0.979908287525177,
        0.9948047399520874,
        1
      ],
      "min": [
        -0.058298919349908829,
        -0.98119717836380005,
        -0.99631571769714355,
        -1
      ],
      "type": "VEC4"
    },
    {
      "bufferView": 1,
      "byteOffset": 39648,
      "componentType": 5126,
      "count": 720,
      "max": [
        0.98470002412796021,
        0.97200000286102295
      ],
      "min": [
        0.014499999582767487,
        0.024499999359250069
      ],
      "type": "VEC2"
    },
    {
      "bufferView": 0,
      "byteOffset": 32088,
      "componentType": 5125,
      "count": 1632,
      "max": [
        719
      ],
      "min": [
        0
      ],
      "type": "SCALAR"
    },
    {
      "bufferView": 2,
      "byteOffset": 136224,
      "componentType": 5126,
      "count": 810,
      "max": [
        1322.0408935546875,
        302.69149780273438,
        7427.4384765625
      ],
      "min": [
        900.9658203125,
        136.74539184570312,
        2478.798095703125
      ],
      "type": "VEC3"
    },
    {
      "bufferView": 2,
      "byteOffset": 145944,
      "componentType": 5126,
      "count": 810,
      "max": [
        1,
        0.0046999640762805939,
        0.99842506647109985
      ],
      "min": [
        -1,
        -1,
        0
      ],
      "type": "VEC3"
    },
    {
      "bufferView": 3,
      "byteOffset": 90816,
      "componentType": 5126,
      "count": 810,
      "max": [
        0.99999099969863892,
        1,
        0.68123352527618408,
        1
      ],
      "min": [
        -0.0178550835698843,
        -1,
        -0.67973053455352783,
        1
      ],
      "type": "VEC4"
    },
    {
      "bufferView": 1,
      "byteOffset": 45408,
      "componentType": 5126,
      "count": 810,
      "max": [
        0.9812999963760376,
        0.99049997329711914
      ],
      "min": [
        0.018500000238418579,
        0.0071999998763203621
      ],
      "type": "VEC2"
    },
    {
      "bufferView": 0,
      "byteOffset": 38616,
      "componentType": 5125,
      "count": 1836,
      "max": [
        809
      ],
      "min": [
        0
      ],
      "type": "SCALAR"
    },
    {
      "bufferView": 2,
      "byteOffset": 155664,
      "componentType": 5126,
      "count": 280,
      "max": [
        1543.69970703125,
        1022.7720947265625,
        9594.2470703125
      ],
      "min": [
        678.85125732421875,
        498.83917236328125,
        7626.52734375
      ],
      "type": "VEC3"
    },
    {
      "bufferView": 2,
      "byteOffset": 159024,
      "componentType": 5126,
      "count": 280,
      "max": [
        0.95106565952301025,
        0.051101412624120712,
        0.77573907375335693
      ],
      "min": [
        -0.95106565952301025,
        -1,
        -1
      ],
      "type": "VEC3"
    },
    {
      "bufferView": 3,
      "byteOffset": 103776,
      "componentType": 5126,
      "count": 280,
      "max": [
        1,
        0.88740324974060059,
        1,
        1
      ],
      "min": [
        -0.63600921630859375,
        -0.70893925428390503,
        -1,
        -1
      ],
      "type": "VEC4"
    },
    {
      "bufferView": 1,
      "byteOffset": 51888,
      "componentType": 5126,
      "count": 280,
      "max": [
        0.98059999942779541,
        0.9724000096321106
      ],
      "min": [
        0.01679999940097332,
        0.012600000016391277
      ],
      "type": "VEC2"
    },
    {
      "bufferView": 0,
      "byteOffset": 45960,
      "componentType": 5125,
      "count": 552,
      "max": [
        279
      ],
      "min": [
        0
      ],
      "type": "SCALAR"
    },
    {
      "bufferView": 2,
      "byteOffset": 162384,
      "componentType": 5126,
      "count": 634,
      "max": [
        2162.7529296875,
        300.84320068359375,
        7344.48388671875
      ],
      "min": [
        65.783935546875,
        5.31439208984375,
        2027.08349609375
      ],
      "type": "VEC3"
    },
    {
      "bufferView": 2,
      "byteOffset": 169992,
      "componentType": 5126,
      "count": 634,
      "max": [
        1,
        0.73320943117141724,
        1
      ],
      "min": [
        -1,
        -1,
        0
      ],
      "type": "VEC3"
    },
    {
      "bufferView": 3,
      "byteOffset": 108256,
      "componentType": 5126,
      "count": 634,
      "max": [
        1,
        1,
        0.76708239316940308,
        1
      ],
      "min": [
        -0.7570611834526062,
        -1,
        -0.78110313415527344,
        1
      ],
      "type": "VEC4"
    },
    {
      "bufferView": 1,
      "byteOffset": 54128,
      "componentType": 5126,
      "count": 634,
      "max": [
        1,
        0.98659998178482056
      ],
      "min": [
        -0,
        0.016599999740719795
      ],
      "type": "VEC2"
    },
    {
      "bufferView": 0,
      "byteOffset": 48168,
      "componentType": 5125,
      "count": 1110,
      "max": [
        633
      ],
      "min": [
        0
      ],
      "type": "SCALAR"
    }
  ],
  "asset": {
    "extras": {
      "author": "Sayantan Biswas (https://sketchfab.com/sayantanb)",
      "license": "CC-BY-4.0 (http://creativecommons.org/licenses/by/4.0/)",
      "source": "https://sketchfab.com/3d-models/empire-state-building-facade-b9c7977b3d5e47c1bb8fb51718873155",
      "title": "Empire State Building Facade"
    },
    "generator": "Sketchfab-4.97.2",
    "version": "2.0"
  },
  "bufferViews": [
    {
      "buffer": 0,
      "byteLength": 52608,
      "byteOffset": 0,
      "name": "floatBufferViews",
      "target": 34963
    },
    {
      "buffer": 0,
      "byteLength": 59200,
      "byteOffset": 52608,
      "byteStride": 8,
      "name": "floatBufferViews",
      "target": 34962
    },
    {
      "buffer": 0,
      "byteLength": 177600,
      "byteOffset": 111808,
      "byteStride": 12,
      "name": "floatBufferViews",
      "target": 34962
    },
    {
      "buffer": 0,
      "byteLength": 118400,
      "byteOffset": 289408,
      "byteStride": 16,
      "name": "floatBufferViews",
      "target": 34962
    }
  ],
  "buffers": [
    {
      "byteLength": 407808,
      "uri": "scene.bin"
    }
  ],
  "extensionsRequired": [
    "KHR_materials_pbrSpecularGlossiness"
  ],
  "extensionsUsed": [
    "KHR_materials_pbrSpecularGlossiness"
  ],
  "images": [
    {
      "uri": "textures/Window_diffuse.jpeg"
    },
    {
      "uri": "textures/Window_specularGlossiness.jpeg"
    },
    {
      "uri": "textures/Window_emissive.jpeg"
    },
    {
      "uri": "textures/Window_normal.png"
    },
    {
      "uri": "textures/Detail1_specularGlossiness.jpeg"
    },
    {
      "uri": "textures/Detail1_diffuse.jpeg"
    },
    {
      "uri": "textures/Detail1_normal.png"
    },
    {
      "uri": "textures/Trim1_specularGlossiness.jpeg"
    },
    {
      "uri": "textures/Trim1_diffuse.jpeg"
    },
    {
      "uri": "textures/Trim1_normal.png"
    },
    {
      "uri": "textures/Spire_Base_diffuse.jpeg"
    },
    {
      "uri": "textures/Spire_Base_emissive.jpeg"
    },
    {
      "uri": "textures/Conc1_specularGlossiness.jpeg"
    },
    {
      "uri": "textures/Conc1_diffuse.jpeg"
    },
    {
      "uri": "textures/Trim2_specularGlossiness.jpeg"
    },
    {
      "uri": "textures/Trim2_diffuse.jpeg"
    },
    {
      "uri": "textures/Spire_Tower_diffuse.png"
    },
    {
      "uri": "textures/Detail2_specularGlossiness.jpeg"
    },
    {
      "uri": "textures/Detail2_diffuse.jpeg"
    },
    {
      "uri": "textures/Detail2_normal.png"
    }
  ],
  "materials": [
    {
      "doubleSided": false,
      "extensions": {
        "KHR_materials_pbrSpecularGlossiness": {
          "diffuseFactor": [
            1,
            1,
            1,
            1
          ],
          "diffuseTexture": {
            "index": 13,
            "texCoord": 0
          },
          "glossinessFactor": 0.40000000000000002,
          "specularFactor": [
            1,
            1,
            1
          ],
          "specularGlossinessTexture": {
            "index": 12,
            "texCoord": 0
          }
        }
      },
      "name": "Conc1"
    },
    {
      "doubleSided": false,
      "extensions": {
        "KHR_materials_pbrSpecularGlossiness": {
          "diffuseFactor": [
            1,
            1,
            1,
            1
          ],
          "diffuseTexture": {
            "index": 5,
            "texCoord": 0
          },
          "glossinessFactor": 0.40000000000000002,
          "specularFactor": [
            1,
            1,
            1
          ],
          "specularGlossinessTexture": {
            "index": 4,
            "texCoord": 0
          }
        }
      },
      "name": "Detail1",
      "normalTexture": {
        "index": 6,
        "scale": 1,
        "texCoord": 0
      }
    },
    {
      "doubleSided": false,
      "extensions": {
        "KHR_materials_pbrSpecularGlossiness": {
          "diffuseFactor": [
            1,
            1,
            1,
            1
          ],
          "diffuseTexture": {
            "index": 18,
            "texCoord": 0
          },
          "glossinessFactor": 0.40000000000000002,
          "specularFactor": [
            1,
            1,
            1
          ],
          "specularGlossinessTexture": {
            "index": 17,
            "texCoord": 0
          }
        }
      },
      "name": "Detail2",
      "normalTexture": {
        "index": 19,
        "scale": 1,
        "texCoord": 0
      }
    },
    {
      "doubleSided": false,
      "emissiveFactor": [
        1,
        1,
        1
      ],
      "emissiveTexture": {
        "index": 11,
        "texCoord": 0
      },
      "extensions": {
        "KHR_materials_pbrSpecularGlossiness": {
          "diffuseFactor": [
            1,
            1,
            1,
            1
          ],
          "diffuseTexture": {
            "index": 10,
            "texCoord": 0
          },
          "glossinessFactor": 0.40000000000000002,
          "specularFactor": [
            0,
            0,
            0
          ]
        }
      },
      "name": "Spire_Base"
    },
    {
      "alphaMode": "BLEND",
      "doubleSided": true,
      "extensions": {
        "KHR_materials_pbrSpecularGlossiness": {
          "diffuseFactor": [
            1,
            1,
            1,
            1
          ],
          "diffuseTexture": {
            "index": 16,
            "texCoord": 0
          },
          "glossinessFactor": 0.40000000000000002,
          "specularFactor": [
            0,
            0,
            0
          ]
        }
      },
      "name": "Spire_Tower"
    },
    {
      "doubleSided": false,
      "extensions": {
        "KHR_materials_pbrSpecularGlossiness": {
          "diffuseFactor": [
            1,
            1,
            1,
            1
          ],
          "diffuseTexture": {
            "index": 8,
            "texCoord": 0
          },
          "glossinessFactor": 0.40000000000000002,
          "specularFactor": [
            1,
            1,
            1
          ],
          "specularGlossinessTexture": {
            "index": 7,
            "texCoord": 0
          }
        }
      },
      "name": "Trim1",
      "normalTexture": {
        "index": 9,
        "scale": 1,
        "texCoord": 0
      }
    },
    {
      "doubleSided": false,
      "extensions": {
        "KHR_materials_pbrSpecularGlossiness": {
          "diffuseFactor": [
            1,
            1,
            1,
            1
          ],
          "diffuseTexture": {
            "index": 15,
            "texCoord": 0
          },
          "glossinessFactor": 0.40000000000000002,
          "specularFactor": [
            1,
            1,
            1
          ],
          "specularGlossinessTexture": {
            "index": 14,
            "texCoord": 0
          }
        }
      },
      "name": "Trim2"
    },
    {
      "doubleSided": false,
      "emissiveFactor": [
        1,
        1,
        1
      ],
      "emissiveTexture": {
        "index": 2,
        "texCoord": 0
      },
      "extensions": {
        "KHR_materials_pbrSpecularGlossiness": {
          "diffuseFactor": [
            1,
            1,
            1,
            1
          ],
          "diffuseTexture": {
            "index": 0,
            "texCoord": 0
          },
          "glossinessFactor": 0.40000000000000002,
          "specularFactor": [
            1,
            1,
            1
          ],
          "specularGlossinessTexture": {
            "index": 1,
            "texCoord": 0
          }
        }
      },
      "name": "Window",
      "normalTexture": {
        "index": 3,
        "scale": 1,
        "texCoord": 0
      }
    }
  ],
  "meshes": [
    {
      "primitives": [
        {
          "attributes": {
            "NORMAL": 1,
            "POSITION": 0,
            "TANGENT": 2,
            "TEXCOORD_0": 3
          },
          "indices": 4,
          "material": 4,
          "mode": 4
        }
      ]
    },
    {
      "primitives": [
        {
          "attributes": {
            "NORMAL": 6,
            "POSITION": 5,
            "TANGENT": 7,
            "TEXCOORD_0": 8
          },
          "indices": 9,
          "material": 5,
          "mode": 4
        }
      ]
    },
    {
      "primitives": [
        {
          "attributes": {
            "NORMAL": 11,
            "POSITION": 10,
            "TANGENT": 12,
            "TEXCOORD_0": 13
          },
          "indices": 14,
          "material": 7,
          "mode": 4
        }
      ]
    },
    {
      "primitives": [
        {
          "attributes": {
            "NORMAL": 16,
            "POSITION": 15,
            "TANGENT": 17,
            "TEXCOORD_0": 18
          },
          "indices": 19,
          "material": 0,
          "mode": 4
        }
      ]
    },
    {
      "primitives": [
        {
          "attributes": {
            "NORMAL": 21,
            "POSITION": 20,
            "TANGENT": 22,
            "TEXCOORD_0": 23
          },
          "indices": 24,
          "material": 1,
          "mode": 4
        }
      ]
    },
    {
      "primitives": [
        {
          "attributes": {
            "NORMAL": 26,
            "POSITION": 25,
            "TANGENT": 27,
            "TEXCOORD_0": 28
          },
          "indices": 29,
          "material": 2,
          "mode": 4
        }
      ]
    },
    {
      "primitives": [
        {
          "attributes": {
            "NORMAL": 31,
            "POSITION": 30,
            "TANGENT": 32,
            "TEXCOORD_0": 33
          },
          "indices": 34,
          "material": 3,
          "mode": 4
        }
      ]
    },
    {
      "primitives": [
        {
          "attributes": {
            "NORMAL": 36,
            "POSITION": 35,
            "TANGENT": 37,
            "TEXCOORD_0": 38
          },
          "indices": 39,
          "material": 6,
          "mode": 4
        }
      ]
    }
  ],
  "nodes": [
    {
      "children": [
        1
      ],
      "name": "RootNode (gltf orientation matrix)",
      "rotation": [
        -0.70710678118654746,
        -0,
        -0,
        0.70710678118654757
      ]
    },
    {
      "children": [
        2
      ],
      "name": "RootNode (model correction matrix)"
    },
    {
      "children": [
        3
      ],
      "matrix": [
        1,
        0,
        0,
        0,
        0,
        1,
        0,
        0,
        0,
        0,
        1,
        0,
        -1481.821533203125,
        -140.45399475097656,
        -6096.79248046875,
        1
      ],
      "name": "EmpireState.obj.cleaner.materialmerger.gles"
    },
    {
      "children": [
        4,
        5,
        6,
        7,
        8,
        9,
        10,
        11
      ],
      "name": ""
    },
    {
      "mesh": 0,
      "name": ""
    },
    {
      "mesh": 1,
      "name": ""
    },
    {
      "mesh": 2,
      "name": ""
    },
    {
      "mesh": 3,
      "name": ""
    },
    {
      "mesh": 4,
      "name": ""
    },
    {
      "mesh": 5,
      "name": ""
    },
    {
      "mesh": 6,
      "name": ""
    },
    {
      "mesh": 7,
      "name": ""
    }
  ],
  "samplers": [
    {
      "magFilter": 9729,
      "minFilter": 9987,
      "wrapS": 10497,
      "wrapT": 10497
    }
  ],
  "scene": 0,
  "scenes": [
    {
      "name": "OSG_Scene",
      "nodes": [
        0
      ]
    }
  ],
  "textures": [
    {
      "sampler": 0,
      "source": 0
    },
    {
      "sampler": 0,
      "source": 1
    },
    {
      "sampler": 0,
      "source": 2
    },
    {
      "sampler": 0,
      "source": 3
    },
    {
      "sampler": 0,
      "source": 4
    },
    {
      "sampler": 0,
      "source": 5
    },
    {
      "sampler": 0,
      "source": 6
    },
    {
      "sampler": 0,
      "source": 7
    },
    {
      "sampler": 0,
      "source": 8
    },
    {
      "sampler": 0,
      "source": 9
    },
    {
      "sampler": 0,
      "source": 10
    },
    {
      "sampler": 0,
      "source": 11
    },
    {
      "sampler": 0,
      "source": 12
    },
    {
      "sampler": 0,
      "source": 13
    },
    {
      "sampler": 0,
      "source": 14
    },
    {
      "sampler": 0,
      "source": 15
    },
    {
      "sampler": 0,
      "source": 16
    },
    {
      "sampler": 0,
      "source": 17
    },
    {
      "sampler": 0,
      "source": 18
    },
    {
      "sampler": 0,
      "source": 19
    }
  ]
}

